<svg width="880" height="670" viewBox="0 0 880 670" xmlns="http://www.w3.org/2000/svg" font-family="ui-monospace, Consolas, Menlo, monospace" font-size="13">
  <!-- window -->
  <rect width="880" height="670" rx="10" fill="#0d1117"/>
  <rect x="0.5" y="0.5" width="879" height="669" rx="10" fill="none" stroke="#21262d"/>
  <rect x="1" y="1" width="878" height="34" rx="9" fill="#161b22"/>
  <circle cx="24" cy="18" r="6" fill="#ff5f57"/>
  <circle cx="44" cy="18" r="6" fill="#febc2e"/>
  <circle cx="64" cy="18" r="6" fill="#28c840"/>
  <text x="440" y="22" text-anchor="middle" fill="#8b949e" font-size="12">dpi_engine &#8212; terminal</text>

  <!-- prompt -->
  <text x="32" y="66"><tspan fill="#3fb950">&#10095;</tspan><tspan fill="#e6edf3"> dpi_engine test_dpi.pcap output.pcap </tspan><tspan fill="#d29922">--block-app YouTube --block-app Facebook</tspan></text>

  <!-- engine header box -->
  <rect x="32" y="82" width="560" height="58" rx="6" fill="#0d1b2a" stroke="#1f6feb"/>
  <text x="52" y="106" fill="#58a6ff" font-weight="bold">DPI ENGINE v2.0 (Multi-threaded)</text>
  <text x="52" y="128" fill="#8b949e">Load Balancers: 2   &#183;   FPs per LB: 2   &#183;   Total FPs: 4</text>

  <text x="32" y="166" fill="#d29922">[Rules] Blocked app: YouTube</text>
  <text x="32" y="185" fill="#d29922">[Rules] Blocked app: Facebook</text>
  <text x="32" y="207" fill="#8b949e">[Reader] Done reading 77 packets from test_dpi.pcap</text>

  <!-- report -->
  <text x="32" y="243" fill="#58a6ff" font-weight="bold">PROCESSING REPORT</text>
  <line x1="32" y1="252" x2="848" y2="252" stroke="#21262d"/>
  <text x="32" y="276"><tspan fill="#8b949e">Total Packets </tspan><tspan fill="#e6edf3">77</tspan><tspan fill="#8b949e">     TCP </tspan><tspan fill="#e6edf3">73</tspan><tspan fill="#8b949e">  &#183;  UDP </tspan><tspan fill="#e6edf3">4</tspan><tspan fill="#8b949e">  &#183;  5,738 bytes</tspan></text>
  <text x="560" y="276"><tspan fill="#8b949e">Forwarded </tspan><tspan fill="#3fb950" font-weight="bold">75</tspan><tspan fill="#8b949e">    Dropped </tspan><tspan fill="#f85149" font-weight="bold">2</tspan></text>

  <text x="32" y="316" fill="#58a6ff" font-weight="bold">THREAD STATISTICS</text>
  <line x1="32" y1="325" x2="848" y2="325" stroke="#21262d"/>
  <text x="32" y="349"><tspan fill="#8b949e">LB0 dispatched </tspan><tspan fill="#e6edf3">35</tspan><tspan fill="#8b949e">   LB1 dispatched </tspan><tspan fill="#e6edf3">42</tspan><tspan fill="#8b949e">      FP0 </tspan><tspan fill="#e6edf3">35</tspan><tspan fill="#8b949e">  FP1 </tspan><tspan fill="#e6edf3">0</tspan><tspan fill="#8b949e">  FP2 </tspan><tspan fill="#e6edf3">0</tspan><tspan fill="#8b949e">  FP3 </tspan><tspan fill="#e6edf3">42</tspan></text>

  <!-- app breakdown -->
  <text x="32" y="389" fill="#58a6ff" font-weight="bold">APPLICATION BREAKDOWN</text>
  <line x1="32" y1="398" x2="848" y2="398" stroke="#21262d"/>

  <g>
    <text x="32" y="424" fill="#e6edf3">HTTPS</text>
    <text x="180" y="424" fill="#8b949e">39   50.6%</text>
    <rect x="310" y="413" width="240" height="12" rx="3" fill="#1f6feb"/>
  </g>
  <g>
    <text x="32" y="448" fill="#e6edf3">Unknown</text>
    <text x="180" y="448" fill="#8b949e">16   20.8%</text>
    <rect x="310" y="437" width="99" height="12" rx="3" fill="#30363d"/>
  </g>
  <g>
    <text x="32" y="472" fill="#e6edf3">DNS</text>
    <text x="180" y="472" fill="#8b949e"> 4    5.2%</text>
    <rect x="310" y="461" width="25" height="12" rx="3" fill="#1f6feb"/>
  </g>
  <g>
    <text x="32" y="496" fill="#e6edf3">YouTube</text>
    <text x="180" y="496" fill="#8b949e"> 1    1.3%</text>
    <rect x="310" y="485" width="7" height="12" rx="3" fill="#f85149"/>
    <text x="330" y="496" fill="#f85149" font-weight="bold">&#10007; BLOCKED</text>
  </g>
  <g>
    <text x="32" y="520" fill="#e6edf3">Facebook</text>
    <text x="180" y="520" fill="#8b949e"> 1    1.3%</text>
    <rect x="310" y="509" width="7" height="12" rx="3" fill="#f85149"/>
    <text x="330" y="520" fill="#f85149" font-weight="bold">&#10007; BLOCKED</text>
  </g>
  <text x="32" y="546" fill="#8b949e">+ 15 more: Netflix, Spotify, Discord, TikTok, Zoom, GitHub, Google, Telegram &#8230;</text>

  <!-- SNIs -->
  <text x="32" y="584" fill="#58a6ff" font-weight="bold">DETECTED DOMAINS (TLS SNI)</text>
  <line x1="32" y1="593" x2="848" y2="593" stroke="#21262d"/>
  <text x="32" y="617"><tspan fill="#e6edf3">www.youtube.com </tspan><tspan fill="#8b949e">&#8594; YouTube</tspan></text>
  <text x="330" y="617"><tspan fill="#e6edf3">open.spotify.com </tspan><tspan fill="#8b949e">&#8594; Spotify</tspan></text>
  <text x="630" y="617"><tspan fill="#e6edf3">discord.com </tspan><tspan fill="#8b949e">&#8594; Discord</tspan></text>
  <text x="32" y="638"><tspan fill="#e6edf3">www.netflix.com </tspan><tspan fill="#8b949e">&#8594; Netflix</tspan></text>
  <text x="330" y="638"><tspan fill="#e6edf3">www.tiktok.com </tspan><tspan fill="#8b949e">&#8594; TikTok</tspan></text>
  <text x="630" y="638"><tspan fill="#e6edf3">github.com </tspan><tspan fill="#8b949e">&#8594; GitHub</tspan></text>

  <text x="32" y="662"><tspan fill="#3fb950" font-weight="bold">&#10003;</tspan><tspan fill="#e6edf3"> Output written to: output.pcap</tspan></text>
</svg>
